<svg xmlns="http://www.w3.org/2000/svg" width="20" height="20" fill="none" viewBox="0 0 20 20">
  <path fill="#F8F5FE" d="M10 0C4.477 0 0 4.477 0 10s4.477 10 10 10 10-4.477 10-10C19.994 4.48 15.52.006 10 0zm0 19.333A9.333 9.333 0 1119.333 10 9.344 9.344 0 0110 19.333z"/>
  <path fill="#F8F5FE" d="M10 1.667A8.333 8.333 0 1018.333 10 8.343 8.343 0 0010 1.667zm0 16A7.667 7.667 0 1117.667 10 7.675 7.675 0 0110 17.667z"/>
  <path fill="#F8F5FE" d="M14.91 5.09a.333.333 0 00-.4-.053L8.557 8.433c-.003.003-.005.007-.009.009a1 1 0 00-.106.106c-.002.004-.006.006-.009.01l-3.397 5.95a.334.334 0 00.455.455l5.95-3.396c.003-.003.005-.007.009-.009.038-.032.073-.068.106-.106.002-.004.006-.006.009-.01l3.397-5.95a.334.334 0 00-.054-.401zM6.22 13.78l2.576-4.51 1.936 1.934-4.512 2.576zm4.982-3.046L9.27 8.8l4.51-2.575-2.577 4.508zM4.667 9.667H3.333a.333.333 0 000 .666h1.334a.333.333 0 000-.666zM16.667 9.667h-1.334a.333.333 0 000 .666h1.334a.333.333 0 000-.666zM10 5c.184 0 .333-.15.333-.333V3.333a.333.333 0 10-.666 0v1.334c0 .184.149.333.333.333zM10 15a.333.333 0 00-.333.333v1.334a.333.333 0 00.666 0v-1.334A.333.333 0 0010 15z"/>
</svg>
